<svg width="256" height="256" viewBox="0 0 256 256" fill="white" xmlns="http://www.w3.org/2000/svg">
<path d="M164.24 203.76C164.83 204.309 165.302 204.972 165.63 205.708C165.958 206.444 166.135 207.238 166.149 208.044C166.163 208.849 166.015 209.65 165.713 210.397C165.411 211.144 164.962 211.823 164.392 212.392C163.823 212.962 163.144 213.411 162.397 213.713C161.65 214.015 160.85 214.163 160.044 214.149C159.238 214.135 158.444 213.958 157.708 213.63C156.972 213.302 156.309 212.829 155.76 212.24L75.7601 132.24C74.6365 131.115 74.0054 129.59 74.0054 128C74.0054 126.41 74.6365 124.885 75.7601 123.76L155.76 43.76C156.897 42.7002 158.402 42.1232 159.956 42.1506C161.511 42.178 162.994 42.8077 164.093 43.907C165.192 45.0063 165.822 46.4894 165.849 48.0438C165.877 49.5982 165.3 51.1026 164.24 52.24L88.4901 128L164.24 203.76Z" fill="white"/>
</svg>
