<svg width="256" height="256" viewBox="0 0 256 256" fill="white" xmlns="http://www.w3.org/2000/svg">
<path d="M180.24 132.24L100.24 212.24C99.1024 213.3 97.598 213.877 96.0436 213.849C94.4892 213.822 93.0061 213.192 91.9068 212.093C90.8075 210.994 90.1778 209.511 90.1503 207.956C90.1229 206.402 90.6999 204.897 91.7598 203.76L167.51 128L91.7598 52.24C90.6999 51.1026 90.1229 49.5982 90.1503 48.0438C90.1778 46.4894 90.8075 45.0063 91.9068 43.907C93.0061 42.8077 94.4892 42.178 96.0436 42.1506C97.598 42.1232 99.1024 42.7002 100.24 43.76L180.24 123.76C181.363 124.885 181.994 126.41 181.994 128C181.994 129.59 181.363 131.115 180.24 132.24Z" fill="white"/>
</svg>
